# xmcd
#
# Track frame offsets:
# 151
# 12094
# 23881
# 37142
# 48073
# 60206
# 71287
# 83406
# 94637
# 106190
# 118119
# 131198
#
# Disc length: 1905 seconds
#
#
# Revision: 0
# Processed by: cddbd v1.5.2PL0 Copyright (c) Steve Scherf et al.
# Submitted via: FreeRIP 2.942 
#
DISCID=8a076f0c
DTITLE=Flatt and Scruggs - Grass Roots Country
DYEAR=2003
DGENRE=Bluegrass
TTITLE0=Foggy Mountain Breakdown
TTITLE1=Is It Too Late
TTITLE2=Baby Blue Eyes
TTITLE3=I'll Never Shed Another Tear
TTITLE4=We'll Meet Again Sweetheart
TTITLE5=Farewell Blues
TTITLE6=My Little Girl in Tennessee
TTITLE7=So Happy I'll Be
TTITLE8=My Cabin in the Hills of Caroline
TTITLE9=Why Don't You Tell Me So
TTITLE10=God Loves His Children
TTITLE11=I'm Going to Make Heaven (My Home)
EXTD=(labelled "FLATTS SCRUGGS")
EXTT0=
EXTT1=
EXTT2=
EXTT3=
EXTT4=
EXTT5=
EXTT6=
EXTT7=
EXTT8=
EXTT9=
EXTT10=
EXTT11=
PLAYORDER=
